<svg id="Layer_1" data-name="Layer 1" xmlns="http://www.w3.org/2000/svg" viewBox="0 0 1536 1024"><defs><style>.cls-1{fill:#fff;}</style></defs><title>Eco Platform Logo</title><path class="cls-1" d="M-449.7,993.8V-30.2h1536v1024ZM158.15,414.45C147.58,356.87,86.37,272.23-25.13,269.21c-90.42-2.45-177.13,60.45-192,169.26.59-1.26,1-2.6,1.47-3.91,8.69-24,19.49-46.78,38.9-64.11a167.09,167.09,0,0,1,61.59-34.84c15.51-4.9,31.3-8.15,47.57-6.78a276.24,276.24,0,0,1,32.46,5A173.67,173.67,0,0,1,14.12,352c-68.34-18-130.17-11.64-184,38.18,4.9.4,8.51.53,12.07,1,17.16,2.33,33,8.84,48.5,16.06,29,13.48,59.24,17.74,90.89,13.71,18.1-2.31,35.22-7.94,52.34-13.73,14.2-4.8,28.57-8.92,43.65-9.41C105.7,396.86,132.89,400.87,158.15,414.45Zm-41.81,173.3c-1.47.53-2,.75-2.63.94-17.87,5.76-36,9.19-54.89,6.38-36.77-5.46-68.74-20.75-95.56-46.54-18.64-17.92-32.57-39.48-46.43-61-12.65-19.69-26-38.7-45.28-52.71-15.34-11.16-32.14-18.46-51.3-19.85-3.36-.24-5.08,1.11-6.72,3.71-11,17.58-16.56,36.89-17.93,57.39-1.93,28.89,4.42,56.08,17.9,81.66C-152.1,623-75.28,662.37-2,652.89c30.42-3.94,58.33-13.78,83.4-31.43A149.71,149.71,0,0,0,116.34,587.75ZM-78.55,448.36c3.07,5.24,5.55,9.55,8.09,13.82,14.72,24.73,29,49.81,49.22,70.65C11.51,566.6,49.7,587.48,98.66,581.6c20.4-2.44,38-10.16,51.24-26.59,18.81-23.4,28.21-50.23,29.75-78.52-8.56,8.28-16.82,18.67-27.27,25.88-26.77,18.47-57.32,22.75-89,19.12-23.81-2.72-45.45-11.88-65.55-24.72-5.36-3.42-10.36-7.43-15.53-11.17,3.34.32,6.06,1.72,8.84,2.94,3,1.32,6.11,2.58,9.22,3.71,34.51,12.47,69.81,19.45,106.54,13.25,22.77-3.84,43-13.38,59.45-30.12,2.13-2.16,2.92-3.94,1.79-6.88-6.88-17.94-18.56-31.3-36.54-38.69-20.54-8.44-41.71-6.74-62.84-3.27-20.53,3.37-40,10.53-59.38,17.85-14.46,5.46-29.18,9.83-44.8,10.7C-50,455.9-63.88,453.63-78.55,448.36Zm417.42-80.6H278.32V328.54h66.07V308.49H253.78V449.33h93.16V428.56H278.26V389.23h60.61ZM530.68,452c31,.27,53.36-21.8,53.77-53.09s-22-54.66-52.63-54.94c-31.64-.29-54.64,22.31-54.82,53.85S498.87,451.71,530.68,452ZM778.34,600.2v-5.14c0-14-.06-28,0-42a41.61,41.61,0,0,1,1-9.38c2.07-8.59,9.33-13.62,18.63-13.26,8.46.33,12.81,4.47,14.55,14.08a40.29,40.29,0,0,1,.6,6.93c0,14.66,0,29.32,0,44,0,1.59.17,3.18.25,4.7h17.92c0-15.8,0-31.28,0-46.76a43.12,43.12,0,0,1,.61-8.43c1.93-9.58,9.65-15.1,19.3-14.07,9,1,13.93,6.69,14,16.86.15,15.32.07,30.65.08,46,0,2.1,0,4.21,0,6.52h18c0-20.17.45-40.13-.15-60.06-.46-15.14-11.46-24.93-26.65-25.35-12.14-.33-21.35,5-28.23,14.81-12.12-19.88-36.47-19-51.07-2.12V517.11h-17V600.2ZM448,419.68c-2.56,2.3-4.6,4.26-6.78,6-12.13,10-29.95,9.3-40.72-2.11s-12.57-24.93-7.83-39.42c5.22-15.94,21.64-24.67,37.42-19.22,6.33,2.19,11.75,7,17.93,10.8l14.9-10.54c-13.87-20-37.67-25.6-60.63-19.12-21.66,6.11-35.58,26.21-35.86,50.26-.29,25.19,13.13,45.36,34.95,52.54,22.89,7.53,48.87.24,61.72-17.47Zm-194.28,65.1V600.15h19V557.79c9.48,0,18.46.2,27.43,0,25.15-.68,41.52-22.66,35-46.82-4-14.8-17.33-25.33-34.63-26C285,484.28,269.51,484.78,253.67,484.78Zm200.58,44.48c-.84-.49-1.48-.65-1.75-1-9-13.12-29.35-15.56-43.42-9.17-18.25,8.28-27.65,29.58-22.49,50.89,5.64,23.34,27.17,36.91,48.93,30.87,7.59-2.11,13.2-7,18.69-14.23v13.6H471V517.1H454.25Zm190.45,73c24.86-.91,42.53-20.44,41.57-46-.9-23.78-20.72-41.54-45.35-40.61-23.45.88-41,20.35-40.24,44.55C601.49,584.78,620.67,603.09,644.7,602.22Zm-68.28-2V531.9h19V516.75H574.93c1.57-5.72,1.87-11.18,4.44-15.19,4.26-6.64,11.8-4.11,18.38-3.72.22-1.61.43-2.73.51-3.87.69-10.62-.14-11.53-11.14-12.12-17.32-.93-27.77,8.15-29.15,25.44-.25,3.08,0,6.2,0,9.76h-14V532.2h13.91v68Zm-80-68.27v6c0,12.66-.12,25.33.07,38,.21,13.51,6.15,22.65,17,24.4,6.25,1,12.87-.12,19.29-.64,1-.08,2.57-2,2.68-3.19.35-3.76.13-7.58.13-11.84-2.27.3-4,.56-5.79.75-9.24,1-14.2-2.71-14.63-11.88-.44-9.48-.2-19-.25-28.48,0-4.26,0-8.52,0-13.3h20.32V516.85H514.68v-24.1H496.24V517H482.82v14.91ZM369.14,600.19V484.72H351.67V600.19Zm379-83.79c-11.8-1.78-21.11,1.89-29.17,11.71v-11H701.06v82.92h18.06V594.2c0-13.31-.19-26.63.18-39.94s9-21.4,22.37-21.47c2.1,0,4.19,0,6.43,0Z" transform="translate(449.7 30.2)"/><path d="M158.15,414.45c-25.26-13.58-52.45-17.59-80.58-16.67-15.08.49-29.45,4.61-43.65,9.41C16.8,413-.32,418.61-18.42,420.92c-31.65,4-61.9-.23-90.89-13.71-15.52-7.22-31.34-13.73-48.5-16.06-3.56-.49-7.17-.62-12.07-1C-116,340.31-54.22,334,14.12,352A173.67,173.67,0,0,0-35.15,333.8a276.24,276.24,0,0,0-32.46-5c-16.27-1.37-32.06,1.88-47.57,6.78a167.09,167.09,0,0,0-61.59,34.84c-19.41,17.33-30.21,40.14-38.9,64.11-.48,1.31-.88,2.65-1.47,3.91,14.88-108.81,101.59-171.71,192-169.26C86.37,272.23,147.58,356.87,158.15,414.45Z" transform="translate(449.7 30.2)"/><path d="M116.34,587.75a149.71,149.71,0,0,1-35,33.71C56.3,639.11,28.39,649-2,652.89-75.28,662.37-152.1,623-186.5,557.68-200,532.1-206.33,504.91-204.4,476c1.37-20.5,6.93-39.81,17.93-57.39,1.64-2.6,3.36-3.95,6.72-3.71,19.16,1.39,36,8.69,51.3,19.85,19.25,14,32.63,33,45.28,52.71,13.86,21.57,27.79,43.13,46.43,61,26.82,25.79,58.79,41.08,95.56,46.54,18.92,2.81,37-.62,54.89-6.38C114.3,588.5,114.87,588.28,116.34,587.75Zm-167-6.26c-50-29.41-87.35-69.91-110.4-124.61C-153.48,519.2-106.23,572.25-50.63,581.49Z" transform="translate(449.7 30.2)"/><path d="M-78.55,448.36c14.67,5.27,28.59,7.54,43.08,6.73,15.62-.87,30.34-5.24,44.8-10.7,19.39-7.32,38.85-14.48,59.38-17.85,21.13-3.47,42.3-5.17,62.84,3.27,18,7.39,29.66,20.75,36.54,38.69,1.13,2.94.34,4.72-1.79,6.88-16.45,16.74-36.68,26.28-59.45,30.12-36.73,6.2-72-.78-106.54-13.25-3.11-1.13-6.18-2.39-9.22-3.71-2.78-1.22-5.5-2.62-8.84-2.94,5.17,3.74,10.17,7.75,15.53,11.17,20.1,12.84,41.74,22,65.55,24.72,31.73,3.63,62.28-.65,89.05-19.12,10.45-7.21,18.71-17.6,27.27-25.88-1.54,28.29-10.94,55.12-29.75,78.52-13.2,16.43-30.84,24.15-51.24,26.59-49,5.88-87.15-15-119.9-48.77-20.21-20.84-34.5-45.92-49.22-70.65C-73,457.91-75.48,453.6-78.55,448.36Z" transform="translate(449.7 30.2)"/><path d="M338.87,367.76v21.47H278.26v39.33h68.68v20.77H253.78V308.49h90.61v20.05H278.32v39.22Z" transform="translate(449.7 30.2)"/><path d="M530.68,452c-31.81-.26-53.86-22.51-53.68-54.18s23.18-54.14,54.82-53.85c30.61.28,53,23.69,52.63,54.94S561.7,452.24,530.68,452Zm-30.41-54c.93,4.51,1.4,9.19,2.89,13.51,3.82,11.05,11.67,18.21,23.19,20.19,11,1.88,20.42-1.86,27.39-10.66,7.37-9.31,9-20,6.7-31.51-4-19.5-24.61-31-41.8-22.67C505.93,373,501.1,384.25,500.27,398Z" transform="translate(449.7 30.2)"/><path d="M778.34,600.2H760.42V517.11h17V527.5c14.6-16.87,39-17.76,51.07,2.12,6.88-9.83,16.09-15.14,28.23-14.81,15.19.42,26.19,10.21,26.65,25.35.6,19.93.15,39.89.15,60.06h-18c0-2.31,0-4.42,0-6.52,0-15.32.07-30.65-.08-46-.1-10.17-5-15.89-14-16.86-9.65-1-17.37,4.49-19.3,14.07a43.12,43.12,0,0,0-.61,8.43c0,15.48,0,31,0,46.76H813.49c-.08-1.52-.25-3.11-.25-4.7,0-14.65,0-29.31,0-44a40.29,40.29,0,0,0-.6-6.93c-1.74-9.61-6.09-13.75-14.55-14.08-9.3-.36-16.56,4.67-18.63,13.26a41.61,41.61,0,0,0-1,9.38c-.1,14,0,28,0,42Z" transform="translate(449.7 30.2)"/><path d="M448,419.68l15.1,11.76c-12.85,17.71-38.83,25-61.72,17.47-21.82-7.18-35.24-27.35-34.95-52.54.28-24.05,14.2-44.15,35.86-50.26,23-6.48,46.76-.92,60.63,19.12L448,375.77c-6.18-3.82-11.6-8.61-17.93-10.8-15.78-5.45-32.2,3.28-37.42,19.22-4.74,14.49-2.86,28.09,7.83,39.42s28.59,12.08,40.72,2.11C443.35,423.94,445.39,422,448,419.68Z" transform="translate(449.7 30.2)"/><path d="M253.67,484.78c15.84,0,31.33-.5,46.78.13,17.3.69,30.64,11.22,34.63,26,6.51,24.16-9.86,46.14-35,46.82-9,.24-17.95,0-27.43,0v42.36h-19Zm19.14,16.72v39.35c9.38,0,18.39.62,27.28-.17,10-.89,16.61-8.89,17.1-19s-5.38-18.65-15.61-19.94C292.15,500.57,282.45,501.5,272.81,501.5Z" transform="translate(449.7 30.2)"/><path d="M454.25,529.26V517.1H471v83.07h-16.8v-13.6c-5.49,7.22-11.1,12.12-18.69,14.23-21.76,6-43.29-7.53-48.93-30.87-5.16-21.31,4.24-42.61,22.49-50.89,14.07-6.39,34.46-3.95,43.42,9.17C452.77,528.61,453.41,528.77,454.25,529.26ZM404.16,559c0,20.62,15,30.62,33.18,25.77,10.75-2.88,16.8-13.86,15.92-27.47-1.19-18.46-16.82-30-33-24.46C410.26,536.26,404.15,546.18,404.16,559Z" transform="translate(449.7 30.2)"/><path d="M644.7,602.22c-24,.87-43.21-17.44-44-42-.8-24.2,16.79-43.67,40.24-44.55,24.63-.93,44.45,16.83,45.35,40.61C687.23,581.78,669.56,601.31,644.7,602.22Zm-25.83-43.56c.49,2.94.63,6,1.55,8.78,3.08,9.46,8.83,16.6,19.14,18.24s18.83-2.4,24.06-11.5c6.15-10.69,5.87-21.78-.89-32.11-8.3-12.7-24.72-14.46-35.38-4.2C621.49,543.53,619.17,550.61,618.87,558.66Z" transform="translate(449.7 30.2)"/><path d="M576.42,600.21H557.85v-68H543.94V517.05h14c0-3.56-.21-6.68,0-9.76,1.38-17.29,11.83-26.37,29.15-25.44,11,.59,11.83,1.5,11.14,12.12-.08,1.14-.29,2.26-.51,3.87-6.58-.39-14.12-2.92-18.38,3.72-2.57,4-2.87,9.47-4.44,15.19h20.46V531.9h-19Z" transform="translate(449.7 30.2)"/><path d="M496.37,531.94H482.82V517h13.42V492.75h18.44v24.1h20.48v14.88H514.84c0,4.78,0,9,0,13.3,0,9.5-.19,19,.25,28.48.43,9.17,5.39,12.91,14.63,11.88,1.76-.19,3.52-.45,5.79-.75,0,4.26.22,8.08-.13,11.84-.11,1.19-1.67,3.11-2.68,3.19-6.42.52-13,1.65-19.29.64-10.82-1.75-16.76-10.89-17-24.4-.19-12.66-.06-25.33-.07-38Z" transform="translate(449.7 30.2)"/><path d="M369.14,600.19H351.67V484.72h17.47Z" transform="translate(449.7 30.2)"/><path d="M748.1,516.4v16.38c-2.24,0-4.33,0-6.43,0-13.41.07-22,8-22.37,21.47s-.14,26.63-.18,39.94v5.87H701.06V517.15h17.87v11C727,518.29,736.3,514.62,748.1,516.4Z" transform="translate(449.7 30.2)"/><path class="cls-1" d="M-50.63,581.49c-55.6-9.24-102.85-62.29-110.4-124.61C-138,511.58-100.65,552.08-50.63,581.49Z" transform="translate(449.7 30.2)"/><path class="cls-1" d="M500.27,398c.83-13.74,5.66-25,18.37-31.14,17.19-8.3,37.82,3.17,41.8,22.67,2.34,11.51.67,22.2-6.7,31.51-7,8.8-16.43,12.54-27.39,10.66-11.52-2-19.37-9.14-23.19-20.19C501.67,407.18,501.2,402.5,500.27,398Z" transform="translate(449.7 30.2)"/><path class="cls-1" d="M272.81,501.5c9.64,0,19.34-.93,28.77.25,10.23,1.29,16.1,9.89,15.61,19.94s-7.08,18.1-17.1,19c-8.89.79-17.9.17-27.28.17Z" transform="translate(449.7 30.2)"/><path class="cls-1" d="M404.16,559c0-12.79,6.1-22.71,16.11-26.16,16.17-5.58,31.8,6,33,24.46.88,13.61-5.17,24.59-15.92,27.47C419.21,589.59,404.15,579.59,404.16,559Z" transform="translate(449.7 30.2)"/><path class="cls-1" d="M618.87,558.66c.3-8,2.62-15.13,8.48-20.79,10.66-10.26,27.08-8.5,35.38,4.2,6.76,10.33,7,21.42.89,32.11-5.23,9.1-13.66,13.15-24.06,11.5s-16.06-8.78-19.14-18.24C619.5,564.65,619.36,561.6,618.87,558.66Z" transform="translate(449.7 30.2)"/></svg>